<svg id="visual" viewBox="0 0 900 600" width="900" height="600" xmlns="http://www.w3.org/2000/svg" xmlns:xlink="http://www.w3.org/1999/xlink" version="1.1"><rect x="0" y="0" width="900" height="600" fill="#002233"></rect><path d="M0 461L21.5 465.7C43 470.3 86 479.7 128.8 466C171.7 452.3 214.3 415.7 257.2 402.7C300 389.7 343 400.3 385.8 415C428.7 429.7 471.3 448.3 514.2 446.2C557 444 600 421 642.8 429.5C685.7 438 728.3 478 771.2 486.7C814 495.3 857 472.7 878.5 461.3L900 450L900 601L878.5 601C857 601 814 601 771.2 601C728.3 601 685.7 601 642.8 601C600 601 557 601 514.2 601C471.3 601 428.7 601 385.8 601C343 601 300 601 257.2 601C214.3 601 171.7 601 128.8 601C86 601 43 601 21.5 601L0 601Z" fill="#0066FF" stroke-linecap="round" stroke-linejoin="miter"></path></svg>