<svg id="visual" viewBox="0 0 900 600" width="900" height="600" xmlns="http://www.w3.org/2000/svg" xmlns:xlink="http://www.w3.org/1999/xlink" version="1.1"><rect x="0" y="0" width="900" height="600" fill="#002233"></rect><path d="M271 0L259.3 4.5C247.7 9 224.3 18 203.8 27.2C183.3 36.3 165.7 45.7 169.3 54.8C173 64 198 73 230 82C262 91 301 100 308 109C315 118 290 127 263.5 136.2C237 145.3 209 154.7 206 163.8C203 173 225 182 217.8 191C210.7 200 174.3 209 155.8 218C137.3 227 136.7 236 148 245.2C159.3 254.3 182.7 263.7 207 272.8C231.3 282 256.7 291 271.5 300C286.3 309 290.7 318 272.2 327.2C253.7 336.3 212.3 345.7 178.8 354.8C145.3 364 119.7 373 133.5 382C147.3 391 200.7 400 229.3 409C258 418 262 427 277.7 436.2C293.3 445.3 320.7 454.7 300.3 463.8C280 473 212 482 197.8 491C183.7 500 223.3 509 249.3 518C275.3 527 287.7 536 295.2 545.2C302.7 554.3 305.3 563.7 274.7 572.8C244 582 180 591 148 595.5L116 600L0 600L0 595.5C0 591 0 582 0 572.8C0 563.7 0 554.3 0 545.2C0 536 0 527 0 518C0 509 0 500 0 491C0 482 0 473 0 463.8C0 454.7 0 445.3 0 436.2C0 427 0 418 0 409C0 400 0 391 0 382C0 373 0 364 0 354.8C0 345.7 0 336.3 0 327.2C0 318 0 309 0 300C0 291 0 282 0 272.8C0 263.7 0 254.3 0 245.2C0 236 0 227 0 218C0 209 0 200 0 191C0 182 0 173 0 163.8C0 154.7 0 145.3 0 136.2C0 127 0 118 0 109C0 100 0 91 0 82C0 73 0 64 0 54.8C0 45.7 0 36.3 0 27.2C0 18 0 9 0 4.5L0 0Z" fill="#0cb4f3" stroke-linecap="round" stroke-linejoin="miter"></path></svg>