<svg id="visual" viewBox="0 0 900 600" width="900" height="600" xmlns="http://www.w3.org/2000/svg" xmlns:xlink="http://www.w3.org/1999/xlink" version="1.1"><rect x="0" y="0" width="900" height="600" fill="#fff"></rect><g transform="translate(414.9329504744191 257.501806810282)"><path d="M180 -248.3C248.2 -236.2 328.8 -211.6 348.7 -161.2C368.6 -110.9 327.8 -34.8 303.8 34.7C279.8 104.1 272.5 167 240.9 215.4C209.3 263.9 153.4 297.9 91.7 319.3C30 340.6 -37.6 349.3 -108.4 341.2C-179.1 333.1 -253.2 308.3 -272.8 254C-292.4 199.7 -257.6 115.9 -257.6 43.7C-257.6 -28.5 -292.6 -89 -281.8 -135.4C-271.1 -181.9 -214.8 -214.2 -160.2 -232.6C-105.6 -251 -52.8 -255.5 1.5 -257.9C55.9 -260.3 111.7 -260.5 180 -248.3" fill="#4FACF7"></path></g></svg>