<svg id="visual" viewBox="0 0 900 600" width="900" height="600" xmlns="http://www.w3.org/2000/svg" xmlns:xlink="http://www.w3.org/1999/xlink" version="1.1"><rect x="0" y="0" width="900" height="600" fill="#f2f8fd"></rect><g transform="translate(482.79446041987364 262.21435402695766)"><path d="M101.6 -162.7C130 -139.8 150.3 -108.9 163.3 -75.9C176.4 -42.9 182.2 -7.9 186.4 33.3C190.6 74.6 193.2 122.1 175.4 163.8C157.6 205.5 119.5 241.4 73.1 260.1C26.7 278.9 -28.1 280.5 -69.2 258.2C-110.4 235.9 -137.9 189.6 -173.6 149.7C-209.3 109.8 -253.1 76.3 -255 38.9C-256.8 1.6 -216.6 -39.5 -184.5 -73.7C-152.4 -107.8 -128.4 -135.1 -99 -157.5C-69.6 -179.9 -34.8 -197.5 0.9 -198.9C36.6 -200.3 73.2 -185.5 101.6 -162.7" fill="#48d2e5"></path></g></svg>