<svg id="visual" viewBox="0 0 900 600" width="900" height="600" xmlns="http://www.w3.org/2000/svg" xmlns:xlink="http://www.w3.org/1999/xlink" version="1.1"><rect x="0" y="0" width="900" height="600" fill="#f5f2f9"></rect><path d="M202 0L209.7 6.7C217.3 13.3 232.7 26.7 229.5 40C226.3 53.3 204.7 66.7 225.8 80C247 93.3 311 106.7 337.5 120C364 133.3 353 146.7 337.8 160C322.7 173.3 303.3 186.7 324.7 200C346 213.3 408 226.7 446.5 240C485 253.3 500 266.7 500.7 280C501.3 293.3 487.7 306.7 444.7 320C401.7 333.3 329.3 346.7 335.7 360C342 373.3 427 386.7 465.5 400C504 413.3 496 426.7 499.5 440C503 453.3 518 466.7 508.3 480C498.7 493.3 464.3 506.7 406.3 520C348.3 533.3 266.7 546.7 246.3 560C226 573.3 267 586.7 287.5 593.3L308 600L0 600L0 593.3C0 586.7 0 573.3 0 560C0 546.7 0 533.3 0 520C0 506.7 0 493.3 0 480C0 466.7 0 453.3 0 440C0 426.7 0 413.3 0 400C0 386.7 0 373.3 0 360C0 346.7 0 333.3 0 320C0 306.7 0 293.3 0 280C0 266.7 0 253.3 0 240C0 226.7 0 213.3 0 200C0 186.7 0 173.3 0 160C0 146.7 0 133.3 0 120C0 106.7 0 93.3 0 80C0 66.7 0 53.3 0 40C0 26.7 0 13.3 0 6.7L0 0Z" fill="#6d75db" stroke-linecap="round" stroke-linejoin="miter"></path></svg>